<svg width="32" height="32" viewBox="0 0 32 32" fill="none" xmlns="http://www.w3.org/2000/svg">
<path d="M13.3333 2.66666C13.3333 1.49333 14.7413 0.891994 15.5893 1.70399C18.2 4.20533 19.7173 9.69733 17.9226 13.864L17.816 14.096L17.832 14.1C18.6653 14.2773 19.436 13.5267 20.9026 11.2027L21.0893 10.904C21.1975 10.7299 21.3444 10.583 21.5186 10.4749C21.6927 10.3667 21.8895 10.3002 22.0935 10.2804C22.2976 10.2607 22.5035 10.2883 22.6951 10.3611C22.8868 10.4338 23.0591 10.5498 23.1986 10.7C24.9773 12.6133 26.6666 16.536 26.6666 19.06C26.6666 24.7467 21.8786 29.3333 16 29.3333C10.1213 29.3333 5.33331 24.7467 5.33331 19.0587C5.33331 16.056 6.69598 12.7707 8.84265 10.6573L9.64931 9.87199C9.97065 9.55733 10.228 9.29866 10.4733 9.03999C12.38 7.02399 13.3333 5.14133 13.3333 2.66666Z" fill="white"/>
</svg>
