<svg width="32" height="32" viewBox="0 0 32 32" fill="none" xmlns="http://www.w3.org/2000/svg">
<path d="M12 16C12 14.594 12.088 13.25 12.25 12H19.75C19.91 13.25 20 14.594 20 16C20 17.406 19.912 18.75 19.75 20H12.25C12.0832 18.6732 11.9997 17.3372 12 16ZM10.234 20C10.0774 18.6724 9.99931 17.3368 10 16C10 14.614 10.08 13.27 10.234 12H4.68001C4.22795 13.2851 3.99799 14.6377 4.00001 16C4.00001 17.402 4.24001 18.748 4.68201 20H10.234ZM5.60601 22H10.546C10.796 23.31 11.13 24.508 11.532 25.552C11.8 26.25 12.104 26.896 12.446 27.466C9.56084 26.567 7.11924 24.6158 5.60601 22ZM12.584 22H19.416C19.2226 22.9653 18.9504 23.9132 18.602 24.834C18.176 25.942 17.692 26.772 17.206 27.306C16.72 27.84 16.312 28 16 28C15.688 28 15.28 27.84 14.794 27.306C14.308 26.772 13.824 25.942 13.398 24.834C13.0496 23.9132 12.7774 22.9653 12.584 22ZM21.456 22C21.2315 23.2107 20.9008 24.3993 20.468 25.552C20.2204 26.2157 19.9146 26.8562 19.554 27.466C22.4392 26.567 24.8808 24.6158 26.394 22H21.456ZM27.316 20C27.7694 18.7152 28.0008 17.3625 28 16C28.0014 14.6376 27.7708 13.285 27.318 12H21.766C21.918 13.27 22 14.614 22 16C22 17.386 21.92 18.73 21.766 20H27.316ZM18.604 7.166C18.922 7.994 19.198 8.946 19.418 10H12.584C12.804 8.946 13.08 7.994 13.398 7.166C13.824 6.058 14.308 5.228 14.794 4.694C15.28 4.16 15.688 4 16 4C16.312 4 16.72 4.16 17.206 4.694C17.692 5.228 18.176 6.058 18.602 7.166M21.456 10H26.396C24.8823 7.38377 22.4399 5.43258 19.554 4.534C19.894 5.104 20.2 5.75 20.468 6.448C20.87 7.492 21.204 8.688 21.456 10ZM5.60601 10H10.546C10.7699 8.78939 11.0999 7.60081 11.532 6.448C11.8 5.75 12.104 5.104 12.446 4.534C9.56084 5.43302 7.11924 7.38416 5.60601 10Z" fill="white"/>
</svg>
