<svg width="32" height="32" viewBox="0 0 32 32" fill="none" xmlns="http://www.w3.org/2000/svg">
<path d="M15.0001 28.0001V23.6668H6.66672C6.46907 23.6666 6.2759 23.6078 6.11161 23.498C5.94733 23.3881 5.81929 23.2319 5.74367 23.0493C5.66806 22.8667 5.64826 22.6658 5.68677 22.4719C5.72528 22.2781 5.82038 22.0999 5.96006 21.9601L10.2534 17.6668H8.66672C8.47435 17.6666 8.28611 17.611 8.12456 17.5065C7.96301 17.4021 7.83501 17.2533 7.75592 17.0779C7.67682 16.9026 7.64999 16.7081 7.67863 16.5179C7.70727 16.3277 7.79017 16.1497 7.91739 16.0054L12.7814 10.4908L15.0507 3.6841L15.1134 3.53743C15.2041 3.36316 15.3442 3.21948 15.5161 3.12434C15.688 3.02919 15.8841 2.9868 16.08 3.00244C16.2758 3.01809 16.4627 3.09108 16.6174 3.21231C16.772 3.33354 16.8875 3.49763 16.9494 3.6841L19.2174 10.4908L24.0841 16.0054L24.1721 16.1214C24.2703 16.2724 24.3259 16.4471 24.333 16.627C24.3402 16.8069 24.2986 16.9855 24.2127 17.1438C24.1268 17.302 23.9998 17.4342 23.845 17.5262C23.6902 17.6183 23.5135 17.6668 23.3334 17.6668H21.7467L26.0401 21.9601C26.1797 22.0999 26.2748 22.2781 26.3133 22.4719C26.3519 22.6658 26.3321 22.8667 26.2564 23.0493C26.1808 23.2319 26.0528 23.3881 25.8885 23.498C25.7242 23.6078 25.531 23.6666 25.3334 23.6668H17.0001V28.0001C17.0001 28.2653 16.8947 28.5197 16.7072 28.7072C16.5196 28.8947 16.2653 29.0001 16.0001 29.0001C15.7348 29.0001 15.4805 28.8947 15.2929 28.7072C15.1054 28.5197 15.0001 28.2653 15.0001 28.0001Z" fill="white"/>
</svg>
