<svg width="32" height="32" viewBox="0 0 32 32" fill="none" xmlns="http://www.w3.org/2000/svg">
<path d="M15.7226 27.616C15.3964 27.616 15.1097 27.5049 14.8626 27.2827C14.6155 27.0622 14.4919 26.7716 14.4919 26.4107C14.4919 26.2382 14.5297 26.0471 14.6053 25.8373C14.6808 25.6276 14.7937 25.4476 14.9439 25.2973L19.8546 20.388L19.1186 19.652L14.2159 24.5613C14.0648 24.7125 13.8946 24.8253 13.7053 24.9C13.5159 24.9756 13.3235 25.0133 13.1279 25.0133C12.7848 25.0133 12.4937 24.8938 12.2546 24.6547C12.0155 24.4156 11.8964 24.1249 11.8973 23.7827C11.8973 23.5773 11.9391 23.3769 12.0226 23.1813C12.1071 22.9858 12.2133 22.8236 12.3413 22.6947L17.2519 17.7853L16.5226 17.056L11.6133 21.96C11.4799 22.0933 11.3142 22.2022 11.1159 22.2867C10.9177 22.3711 10.7186 22.4129 10.5186 22.412C10.1799 22.412 9.89017 22.2916 9.64928 22.0507C9.40839 21.8098 9.28795 21.52 9.28795 21.1813C9.28795 20.9858 9.32528 20.7933 9.39995 20.604C9.47461 20.4147 9.5875 20.2444 9.73861 20.0933L14.3413 15.4907L13.6053 14.7627L9.01061 19.3653C8.88261 19.4933 8.7195 19.5996 8.52128 19.684C8.32217 19.7676 8.12039 19.8093 7.91595 19.8093C7.55506 19.8093 7.2595 19.6942 7.02928 19.464C6.79995 19.2347 6.68528 18.9396 6.68528 18.5787C6.68528 18.3831 6.72261 18.1907 6.79728 18.0013C6.87284 17.812 6.98572 17.6418 7.13595 17.4907L13.7226 10.904L16.5946 13.784C16.8391 14.0285 17.1151 14.2013 17.4226 14.3027C17.7311 14.4049 18.0431 14.456 18.3586 14.456C19.0013 14.456 19.5382 14.2444 19.9693 13.8213C20.4004 13.3982 20.6159 12.8573 20.6159 12.1987C20.6159 11.8876 20.5559 11.5738 20.4359 11.2573C20.3159 10.9418 20.1288 10.6564 19.8746 10.4013L16.3439 6.87067L17.6506 5.564C17.9439 5.276 18.2982 5.05067 18.7133 4.888C19.1284 4.72445 19.5435 4.64267 19.9586 4.64267C20.4004 4.64267 20.8315 4.72445 21.2519 4.888C21.6724 5.05067 22.0311 5.28089 22.3279 5.57867L28.0399 11.2933C28.3199 11.5742 28.5417 11.9164 28.7053 12.32C28.8688 12.7227 28.9506 13.1693 28.9506 13.66C28.9506 14.1044 28.8675 14.5244 28.7013 14.92C28.5359 15.3156 28.3155 15.6511 28.0399 15.9267L16.8119 27.1627C16.6679 27.3067 16.4991 27.4178 16.3053 27.496C16.1133 27.5751 15.9195 27.6147 15.7239 27.6147M5.59861 17.5627L4.21861 16.1827C3.84084 15.8102 3.55639 15.3627 3.36528 14.84C3.17417 14.3165 3.07861 13.8053 3.07861 13.3067C3.07861 12.7804 3.16395 12.3027 3.33461 11.8733C3.50528 11.444 3.72306 11.0969 3.98795 10.832L9.23728 5.57601C9.52439 5.28889 9.84439 5.06089 10.1973 4.892C10.5484 4.72312 10.9319 4.63867 11.3479 4.63867C11.7942 4.63867 12.2031 4.71823 12.5746 4.87734C12.9479 5.03556 13.2884 5.26845 13.5959 5.57601L19.1479 11.1267C19.2813 11.26 19.3897 11.4258 19.4733 11.624C19.5568 11.8222 19.5986 12.0102 19.5986 12.188C19.5986 12.5436 19.4826 12.8422 19.2506 13.084C19.0177 13.324 18.7235 13.444 18.3679 13.444C18.1679 13.444 17.9755 13.408 17.7906 13.336C17.6066 13.2631 17.4368 13.1489 17.2813 12.9933L13.7159 9.44534L5.59861 17.5627Z" fill="white"/>
</svg>
