<svg width="32" height="32" viewBox="0 0 32 32" fill="none" xmlns="http://www.w3.org/2000/svg">
<path d="M6.82667 6.66667H25.16L23.9067 5.33333H7.90667L6.82667 6.66667ZM27.3867 6.97333C27.7733 7.42667 28 8 28 8.66667V25.3333C28 26.0406 27.719 26.7189 27.219 27.219C26.7189 27.719 26.0406 28 25.3333 28H6.66667C5.95942 28 5.28115 27.719 4.78105 27.219C4.28095 26.7189 4 26.0406 4 25.3333V8.66667C4 8 4.22667 7.42667 4.61333 6.97333L6.45333 4.73333C6.82667 4.28 7.37333 4 8 4H24C24.6267 4 25.1733 4.28 25.5333 4.73333L27.3867 6.97333ZM8 24H16V20H8V24Z" fill="white"/>
</svg>
