<svg width="32" height="32" viewBox="0 0 32 32" fill="none" xmlns="http://www.w3.org/2000/svg">
<path d="M24 24.6666C23.4695 24.6666 22.9608 24.4559 22.5858 24.0808C22.2107 23.7057 22 23.197 22 22.6666C22 22.1362 22.2107 21.6274 22.5858 21.2524C22.9608 20.8773 23.4695 20.6666 24 20.6666C24.5304 20.6666 25.0391 20.8773 25.4142 21.2524C25.7893 21.6274 26 22.1362 26 22.6666C26 23.197 25.7893 23.7057 25.4142 24.0808C25.0391 24.4559 24.5304 24.6666 24 24.6666ZM26 12.6666L28.6133 15.9999H22.6666V12.6666M7.99998 24.6666C7.46955 24.6666 6.96084 24.4559 6.58577 24.0808C6.21069 23.7057 5.99998 23.197 5.99998 22.6666C5.99998 22.1362 6.21069 21.6274 6.58577 21.2524C6.96084 20.8773 7.46955 20.6666 7.99998 20.6666C8.53041 20.6666 9.03912 20.8773 9.41419 21.2524C9.78927 21.6274 9.99998 22.1362 9.99998 22.6666C9.99998 23.197 9.78927 23.7057 9.41419 24.0808C9.03912 24.4559 8.53041 24.6666 7.99998 24.6666ZM26.6666 10.6666H22.6666V5.33325H3.99998C2.51998 5.33325 1.33331 6.51992 1.33331 7.99992V22.6666H3.99998C3.99998 23.7275 4.42141 24.7449 5.17155 25.495C5.9217 26.2452 6.93911 26.6666 7.99998 26.6666C9.06085 26.6666 10.0783 26.2452 10.8284 25.495C11.5786 24.7449 12 23.7275 12 22.6666H20C20 23.7275 20.4214 24.7449 21.1716 25.495C21.9217 26.2452 22.9391 26.6666 24 26.6666C25.0608 26.6666 26.0783 26.2452 26.8284 25.495C27.5786 24.7449 28 23.7275 28 22.6666H30.6666V15.9999L26.6666 10.6666Z" fill="white"/>
</svg>
